<?xml version="1.0" standalone="no"?>
<!DOCTYPE svg PUBLIC "-//W3C//DTD SVG 20010904//EN"
 "http://www.w3.org/TR/2001/REC-SVG-20010904/DTD/svg10.dtd">
<svg version="1.0" xmlns="http://www.w3.org/2000/svg"
 width="723.000000pt" height="398.000000pt" viewBox="0 0 723.000000 398.000000"
 preserveAspectRatio="xMidYMid meet">

<g transform="translate(0.000000,398.000000) scale(0.100000,-0.100000)"
fill="#000000" stroke="none">
<path d="M996 2511 c-9 -14 14 -27 114 -60 106 -36 318 -148 402 -213 70 -55
157 -150 192 -211 15 -26 31 -45 37 -42 14 10 11 26 -19 90 -34 71 -158 207
-237 259 -118 79 -281 156 -360 171 -88 17 -122 19 -129 6z"/>
<path d="M1660 2504 c0 -13 30 -57 82 -118 4 -5 13 -4 22 3 13 11 14 17 2 40
-28 52 -106 108 -106 75z"/>
<path d="M1410 2501 c0 -4 46 -42 103 -84 111 -82 157 -122 202 -179 23 -29
34 -36 45 -28 13 8 12 14 -5 47 -11 20 -34 52 -52 69 -41 42 -179 146 -220
167 -34 18 -73 22 -73 8z"/>
<path d="M976 2371 c-25 -10 -13 -17 56 -37 80 -24 257 -119 335 -180 119 -94
265 -271 333 -401 18 -35 37 -63 42 -63 34 0 -51 182 -137 295 -147 193 -292
300 -499 370 -78 26 -98 29 -130 16z"/>
<path d="M6217 2343 c-4 -3 -7 -118 -7 -255 l0 -248 55 0 55 0 0 255 0 255
-48 0 c-27 0 -52 -3 -55 -7z"/>
<path d="M4210 2314 c-8 -1 -32 -5 -53 -9 -87 -14 -149 -109 -149 -230 0 -130
59 -212 168 -235 104 -22 194 7 235 74 30 48 25 62 -25 75 -60 15 -63 14 -70
-12 -12 -51 -99 -62 -147 -19 -28 25 -32 35 -36 98 -7 96 11 138 66 155 55 16
100 -2 108 -43 5 -28 8 -29 40 -23 71 13 86 23 79 53 -10 41 -38 75 -77 93
-33 16 -109 29 -139 23z"/>
<path d="M2067 2303 c-4 -3 -7 -109 -7 -235 l0 -228 60 0 60 0 0 80 0 80 30 0
c28 0 33 -6 59 -64 33 -73 60 -96 113 -96 42 0 43 1 52 51 5 31 3 37 -17 46
-13 6 -35 34 -48 61 l-25 51 28 29 c56 56 54 152 -4 195 -15 11 -48 24 -75 28
-59 10 -217 11 -226 2z m214 -114 c14 -14 18 -27 13 -42 -9 -30 -22 -37 -71
-37 l-43 0 0 50 0 50 40 0 c27 0 47 -7 61 -21z"/>
<path d="M3614 2215 c-5 -35 -10 -45 -25 -45 -15 0 -19 -7 -19 -40 0 -33 3
-40 20 -40 18 0 20 -7 20 -87 0 -102 20 -148 67 -159 15 -3 33 -7 40 -9 28 -9
85 17 103 48 26 42 25 54 -4 61 -13 3 -31 9 -40 12 -10 4 -16 1 -16 -9 0 -16
-24 -30 -34 -20 -3 4 -6 42 -6 85 l0 78 45 0 45 0 0 40 0 40 -45 0 -45 0 0 45
0 45 -49 0 -50 0 -7 -45z"/>
<path d="M5280 2231 c0 -42 -10 -61 -31 -61 -15 0 -19 -7 -19 -40 0 -33 3 -40
20 -40 18 0 20 -7 20 -80 0 -133 28 -172 123 -172 55 0 90 25 102 72 5 22 2
27 -28 38 -43 15 -47 15 -47 -3 0 -8 -9 -15 -20 -15 -19 0 -21 5 -18 78 l3 77
43 3 c42 3 42 3 42 43 l0 39 -45 0 -45 0 0 45 0 45 -50 0 c-49 0 -50 -1 -50
-29z"/>
<path d="M965 2170 c-8 -13 11 -30 33 -30 22 0 238 -106 279 -136 93 -70 200
-170 247 -231 69 -90 73 -58 5 47 -54 84 -157 184 -267 256 -100 67 -279 123
-297 94z"/>
<path d="M2565 2166 c-71 -32 -103 -114 -83 -211 19 -87 97 -135 198 -121 87
12 135 73 135 171 -1 82 -26 132 -79 156 -48 22 -128 24 -171 5z m115 -86 c15
-15 20 -33 20 -73 0 -74 -25 -101 -76 -84 -25 9 -34 34 -34 95 0 44 25 82 55
82 8 0 24 -9 35 -20z"/>
<path d="M2956 2170 c-64 -20 -102 -93 -94 -185 8 -90 59 -142 149 -152 125
-13 196 60 187 192 -7 106 -63 156 -173 154 -22 0 -53 -5 -69 -9z m107 -88
c23 -25 31 -101 15 -131 -19 -35 -52 -44 -80 -22 -18 16 -22 28 -22 76 0 48 4
60 23 76 29 24 43 24 64 1z"/>
<path d="M3314 2166 c-41 -18 -64 -52 -64 -94 0 -46 42 -86 114 -107 34 -10
56 -22 56 -31 0 -22 -59 -22 -72 1 -6 9 -19 10 -50 4 -24 -4 -46 -8 -50 -9
-17 -1 -6 -33 20 -60 56 -56 195 -50 246 11 54 64 23 124 -83 161 -36 13 -66
28 -68 34 -7 20 29 25 48 8 14 -13 29 -15 64 -9 53 7 64 24 41 60 -27 42 -138
59 -202 31z"/>
<path d="M4563 2169 c-110 -32 -126 -252 -23 -312 50 -30 128 -33 184 -9 38
18 50 29 67 68 30 67 24 158 -14 207 -40 52 -127 71 -214 46z m113 -90 c22
-24 26 -118 6 -142 -20 -24 -50 -27 -74 -7 -18 14 -22 28 -22 75 -1 48 3 60
23 76 30 24 43 24 67 -2z"/>
<path d="M5030 2173 c-8 -3 -25 -15 -37 -26 l-23 -20 0 21 c0 20 -5 22 -50 22
l-50 0 0 -165 0 -165 55 0 55 0 0 90 c0 98 10 132 45 148 37 17 44 -3 47 -124
l3 -109 53 -3 52 -3 0 141 0 142 -29 29 c-23 22 -38 29 -68 28 -21 0 -45 -3
-53 -6z"/>
<path d="M5669 2151 l-29 -29 0 24 c0 22 -4 24 -50 24 l-50 0 0 -165 0 -165
55 0 55 0 0 88 c0 107 13 137 57 137 26 0 38 8 63 42 l31 41 -23 16 c-35 25
-76 20 -109 -13z"/>
<path d="M5905 2167 c-74 -34 -109 -126 -85 -217 22 -82 103 -129 200 -116 88
12 130 69 130 176 0 72 -20 116 -65 146 -34 22 -141 29 -180 11z m110 -81 c25
-18 33 -122 13 -150 -19 -24 -67 -24 -85 0 -21 29 -17 120 7 144 24 24 39 25
65 6z"/>
<path d="M972 1989 c2 -7 29 -18 58 -25 131 -33 286 -137 334 -224 30 -54 32
-11 2 47 -30 61 -87 113 -166 153 -95 48 -238 78 -228 49z"/>
<path d="M985 1850 c-3 -6 2 -13 12 -17 96 -35 123 -53 145 -97 12 -25 26 -46
30 -46 10 0 11 -1 -8 53 -18 53 -45 76 -118 101 -59 19 -53 18 -61 6z"/>
</g>
</svg>
